<?xml version="1.0" encoding="UTF-8" standalone="no"?>
<svg
   xmlns:dc="http://purl.org/dc/elements/1.1/"
   xmlns:cc="http://creativecommons.org/ns#"
   xmlns:rdf="http://www.w3.org/1999/02/22-rdf-syntax-ns#"
   xmlns:svg="http://www.w3.org/2000/svg"
   xmlns="http://www.w3.org/2000/svg"
   id="svg8"
   version="1.1"
   viewBox="0 0 15.999999 16"
   height="16mm"
   width="16mm">
  <defs
     id="defs2" />
  <metadata
     id="metadata5">
    <rdf:RDF>
      <cc:Work
         rdf:about="">
        <dc:format>image/svg+xml</dc:format>
        <dc:type
           rdf:resource="http://purl.org/dc/dcmitype/StillImage" />
        <dc:title></dc:title>
      </cc:Work>
    </rdf:RDF>
  </metadata>
  <g
     transform="translate(-180.13487,-80.471584)"
     id="layer1">
    <path
       id="path848"
       d="m 185.88552,95.639504 c -0.3211,-0.354801 -0.58382,-0.880343 -0.58382,-1.16785 0,-1.128378 -1.08183,-2.644832 -2.15327,-3.018341 -1.92975,-0.672707 -3.01356,-2.009293 -3.01356,-3.716395 0,-1.664074 0.88512,-3.666337 2.11933,-4.794155 1.11191,-1.016077 3.11194,-2.18644 3.73642,-2.18644 0.28417,0 0.0191,0.303377 -0.58903,0.674178 -1.12108,0.683564 -2.6093,2.6754 -3.00596,4.023209 -0.31056,1.05525 0.68962,1.968727 1.84095,1.68135 2.57231,-0.642048 2.75143,-0.634666 2.55792,0.105322 -0.10103,0.386293 -0.47822,0.96891 -0.83823,1.294718 -0.85197,0.771025 -0.83671,2.421599 0.0357,3.852363 0.37819,0.620293 0.68762,1.442989 0.68762,1.828202 0,0.610972 0.18691,0.686872 1.46393,0.594477 1.25856,-0.09113 1.48076,-0.225134 1.5838,-0.955631 0.0659,-0.467335 0.41468,-1.224521 0.77503,-1.682613 0.9502,-1.207987 0.85559,-2.943534 -0.20597,-3.778559 -0.47363,-0.372559 -0.86115,-0.945698 -0.86115,-1.273654 0,-0.614487 -0.0363,-0.615372 2.95962,0.07277 0.97836,0.224704 1.94895,-0.786569 1.66873,-1.738698 -0.39186,-1.331484 -1.87873,-3.335348 -3.00597,-4.05116 -0.95261,-0.604931 -0.98647,-0.66996 -0.24456,-0.469744 1.50039,0.404884 3.40672,1.84527 4.37131,3.302853 0.71031,1.073373 0.9368,1.845882 0.95019,3.240936 0.0208,2.175777 -0.87643,3.386603 -2.97579,4.015592 -0.72178,0.216242 -1.31234,0.577331 -1.31234,0.802413 0,0.370307 -0.64478,1.933407 -1.3492,3.270736 -0.17936,0.340519 -0.9124,0.551215 -2.14999,0.617976 -1.48374,0.08007 -2.00036,-0.03411 -2.46165,-0.543808 z m 0.32498,-3.690956 c -0.10909,-0.284174 -0.067,-0.516677 0.0932,-0.516677 0.1603,0 0.48443,0.232503 0.72028,0.516677 0.34907,0.420624 0.33174,0.516689 -0.0932,0.516689 -0.2871,0 -0.61123,-0.232515 -0.72028,-0.516689 z m 3.1001,0 c 0.1091,-0.284174 0.43318,-0.516677 0.72028,-0.516677 0.42495,0 0.44227,0.09608 0.0932,0.516677 -0.23584,0.284174 -0.55997,0.516689 -0.72027,0.516689 -0.16032,0 -0.20225,-0.232515 -0.0932,-0.516689 z"
       style="fill:#8a857f;stroke-width:0.34445536;fill-opacity:1" />
  </g>
</svg>
